CommonSerif-Italic.ufo
<glyph name="r" format="2">
  <advance width="357"/>
  <unicode hex="0072"/>
  <anchor x="287" y="500" name="top"/>
  <anchor x="118" y="-60" name="b.minus-60"/>
  <outline>
    <contour>
      <point x="89" y="17" type="curve" smooth="yes"/>
      <point x="89" y="-2"/>
      <point x="105" y="-11"/>
      <point x="122" y="-11" type="curve" smooth="yes"/>
      <point x="164" y="-11"/>
      <point x="165" y="42"/>
      <point x="173" y="72" type="curve" smooth="yes"/>
      <point x="202" y="189" type="line"/>
      <point x="250" y="276"/>
      <point x="306" y="369"/>
      <point x="329" y="369" type="curve" smooth="yes"/>
      <point x="339" y="369"/>
      <point x="344" y="364"/>
      <point x="350" y="357" type="curve" smooth="yes"/>
      <point x="357" y="349"/>
      <point x="370" y="336"/>
      <point x="384" y="336" type="curve" smooth="yes"/>
      <point x="413" y="336"/>
      <point x="429" y="366"/>
      <point x="429" y="392" type="curve" smooth="yes"/>
      <point x="429" y="419"/>
      <point x="405" y="439"/>
      <point x="377" y="439" type="curve" smooth="yes"/>
      <point x="327" y="439"/>
      <point x="269" y="377"/>
      <point x="225" y="284" type="curve"/>
      <point x="221" y="285" type="line"/>
      <point x="229" y="320" type="line" smooth="yes"/>
      <point x="237.919" y="359.019"/>
      <point x="247" y="399.926"/>
      <point x="247" y="411" type="curve" smooth="yes"/>
      <point x="247" y="426"/>
      <point x="238" y="436"/>
      <point x="225" y="436" type="curve"/>
      <point x="194" y="429"/>
      <point x="146" y="424"/>
      <point x="105" y="423" type="curve"/>
      <point x="98" y="415"/>
      <point x="100" y="404"/>
      <point x="106" y="395" type="curve"/>
      <point x="146" y="392" type="line" smooth="yes"/>
      <point x="162" y="391"/>
      <point x="164" y="379"/>
      <point x="164" y="366" type="curve" smooth="yes"/>
      <point x="164" y="352"/>
      <point x="149" y="282"/>
      <point x="140" y="242" type="curve" smooth="yes"/>
      <point x="102" y="72" type="line" smooth="yes"/>
      <point x="97" y="51"/>
      <point x="89" y="33"/>
    </contour>
  </outline>
</glyph>
<glyph name="AE" format="2">
  <advance width="833"/>
  <unicode hex="00C6"/>
  <anchor x="544" y="740" name="top"/>
  <outline>
    <contour>
      <point x="119" y="85" type="line" smooth="yes"/>
      <point x="88" y="40"/>
      <point x="80" y="32"/>
      <point x="43" y="29" type="curve"/>
      <point x="36" y="28"/>
      <point x="28" y="28"/>
      <point x="21" y="27" type="curve"/>
      <point x="18" y="27"/>
      <point x="16" y="26"/>
      <point x="14" y="25" type="curve"/>
      <point x="12" y="23"/>
      <point x="11" y="22"/>
      <point x="10" y="19" type="curve"/>
      <point x="9" y="13"/>
      <point x="7" y="6"/>
      <point x="6" y="0" type="curve"/>
      <point x="7" y="-2" type="line"/>
      <point x="7" y="-2"/>
      <point x="61" y="0"/>
      <point x="94" y="0" type="curve" smooth="yes"/>
      <point x="132" y="0"/>
      <point x="197" y="-2"/>
      <point x="197" y="-2" type="curve"/>
      <point x="197" y="-1"/>
      <point x="198" y="-1"/>
      <point x="198" y="0" type="curve"/>
      <point x="199" y="7"/>
      <point x="201" y="14"/>
      <point x="202" y="21" type="curve"/>
      <point x="202" y="22"/>
      <point x="202" y="24"/>
      <point x="201" y="25" type="curve" smooth="yes"/>
      <point x="200" y="26"/>
      <point x="199" y="27"/>
      <point x="197" y="27" type="curve"/>
      <point x="188" y="28"/>
      <point x="179" y="28"/>
      <point x="170" y="29" type="curve"/>
      <point x="136" y="31"/>
      <point x="134" y="32"/>
      <point x="159" y="68" type="curve" smooth="yes"/>
      <point x="297" y="266" type="line"/>
      <point x="468" y="266" type="line"/>
      <point x="440" y="122" type="line"/>
      <point x="436" y="106"/>
      <point x="433" y="90"/>
      <point x="430" y="74" type="curve" smooth="yes"/>
      <point x="425" y="46"/>
      <point x="409" y="32"/>
      <point x="369" y="29" type="curve"/>
      <point x="360" y="28"/>
      <point x="352" y="28"/>
      <point x="343" y="27" type="curve"/>
      <point x="341" y="27"/>
      <point x="339" y="26"/>
      <point x="337" y="24" type="curve" smooth="yes"/>
      <point x="336" y="23"/>
      <point x="335" y="21"/>
      <point x="334" y="18" type="curve"/>
      <point x="333" y="12"/>
      <point x="331" y="6"/>
      <point x="330" y="0" type="curve"/>
      <point x="332" y="-2" type="line"/>
      <point x="332" y="-2"/>
      <point x="401" y="0"/>
      <point x="441" y="0" type="curve" smooth="yes"/>
      <point x="447" y="0"/>
      <point x="452" y="0"/>
      <point x="456" y="0" type="curve" smooth="yes"/>
      <point x="651" y="0" type="line" smooth="yes"/>
      <point x="694" y="0"/>
      <point x="738" y="0"/>
      <point x="781" y="0" type="curve"/>
      <point x="795" y="56"/>
      <point x="817" y="115"/>
      <point x="838" y="167" type="curve"/>
      <point x="829" y="169"/>
      <point x="819" y="170"/>
      <point x="810" y="172" type="curve"/>
      <point x="777" y="100"/>
      <point x="736" y="39"/>
      <point x="663" y="39" type="curve" smooth="yes"/>
      <point x="658" y="39"/>
      <point x="653" y="39"/>
      <point x="647" y="39" type="curve" smooth="yes"/>
      <point x="554" y="39" type="line"/>
      <point x="538" y="39" type="line" smooth="yes"/>
      <point x="517" y="39"/>
      <point x="505" y="47"/>
      <point x="510" y="74" type="curve" smooth="yes"/>
      <point x="559" y="329" type="line"/>
      <point x="641" y="329" type="line" smooth="yes"/>
      <point x="646" y="329"/>
      <point x="652" y="329"/>
      <point x="657" y="329" type="curve" smooth="yes"/>
      <point x="690" y="329"/>
      <point x="697" y="313"/>
      <point x="698" y="285" type="curve"/>
      <point x="698" y="275"/>
      <point x="697" y="264"/>
      <point x="697" y="254" type="curve" smooth="yes"/>
      <point x="697" y="252"/>
      <point x="697" y="250"/>
      <point x="698" y="249" type="curve" smooth="yes"/>
      <point x="699" y="248"/>
      <point x="701" y="247"/>
      <point x="704" y="247" type="curve" smooth="yes"/>
      <point x="711" y="247"/>
      <point x="719" y="247"/>
      <point x="726" y="247" type="curve"/>
      <point x="727" y="248"/>
      <point x="727" y="249"/>
      <point x="728" y="250" type="curve"/>
      <point x="730" y="267"/>
      <point x="733" y="312"/>
      <point x="739" y="346" type="curve"/>
      <point x="746" y="379"/>
      <point x="758" y="416"/>
      <point x="766" y="441" type="curve"/>
      <point x="766" y="443"/>
      <point x="765" y="445"/>
      <point x="763" y="445" type="curve" smooth="yes"/>
      <point x="756" y="445"/>
      <point x="749" y="445"/>
      <point x="742" y="445" type="curve" smooth="yes"/>
      <point x="738" y="445"/>
      <point x="735" y="441"/>
      <point x="733" y="437" type="curve"/>
      <point x="729" y="427"/>
      <point x="725" y="417"/>
      <point x="721" y="407" type="curve" smooth="yes"/>
      <point x="709" y="379"/>
      <point x="698" y="363"/>
      <point x="664" y="363" type="curve" smooth="yes"/>
      <point x="659" y="363"/>
      <point x="653" y="363"/>
      <point x="648" y="363" type="curve" smooth="yes"/>
      <point x="566" y="363" type="line"/>
      <point x="605" y="561" type="line"/>
      <point x="609" y="584"/>
      <point x="625" y="605"/>
      <point x="648" y="605" type="curve" smooth="yes"/>
      <point x="728" y="605" type="line" smooth="yes"/>
      <point x="733" y="605"/>
      <point x="739" y="605"/>
      <point x="744" y="605" type="curve" smooth="yes"/>
      <point x="817" y="605"/>
      <point x="823" y="555"/>
      <point x="831" y="486" type="curve"/>
      <point x="841" y="488"/>
      <point x="850" y="489"/>
      <point x="860" y="491" type="curve"/>
      <point x="861" y="520"/>
      <point x="862" y="557"/>
      <point x="865" y="596" type="curve" smooth="yes"/>
      <point x="866" y="612"/>
      <point x="868" y="629"/>
      <point x="869" y="645" type="curve"/>
      <point x="863" y="645"/>
      <point x="858" y="645"/>
      <point x="852" y="645" type="curve" smooth="yes"/>
      <point x="841" y="645"/>
      <point x="830" y="645"/>
      <point x="818" y="645" type="curve" smooth="yes"/>
      <point x="582" y="645" type="line"/>
      <point x="565" y="645" type="line"/>
      <point x="414" y="646" type="line"/>
      <point x="412" y="645" type="line"/>
      <point x="408" y="625" type="line"/>
      <point x="407" y="621"/>
      <point x="408" y="618"/>
      <point x="414" y="618" type="curve"/>
      <point x="424" y="617"/>
      <point x="433" y="617"/>
      <point x="443" y="616" type="curve"/>
      <point x="462" y="615"/>
      <point x="479" y="601"/>
      <point x="463" y="577" type="curve"/>
      <point x="460" y="572"/>
      <point x="457" y="568"/>
      <point x="453" y="563" type="curve"/>
    </contour>
    <contour>
      <point x="323" y="305" type="line"/>
      <point x="502" y="561" type="line"/>
      <point x="510" y="574"/>
      <point x="519" y="586"/>
      <point x="527" y="598" type="curve"/>
      <point x="529" y="597"/>
      <point x="530" y="594"/>
      <point x="530" y="590" type="curve" smooth="yes"/>
      <point x="530" y="586"/>
      <point x="529" y="581"/>
      <point x="528" y="575" type="curve"/>
      <point x="475" y="305" type="line"/>
    </contour>
  </outline>
</glyph>
<glyph name="uni01E4" format="2">
  <advance width="687"/>
  <unicode hex="01E4"/>
  <outline>
    <component base="G"/>
    <contour>
      <point x="571" y="206" type="line"/>
      <point x="442" y="206" type="line"/>
      <point x="435" y="164" type="line"/>
      <point x="564" y="164" type="line"/>
    </contour>
    <contour>
      <point x="614" y="164" type="line"/>
      <point x="695" y="164" type="line"/>
      <point x="702" y="206" type="line"/>
      <point x="622" y="206" type="line"/>
    </contour>
  </outline>
</glyph>
<glyph name="uni0237" format="2">
  <advance width="270"/>
  <unicode hex="0237"/>
  <anchor x="231" y="500" name="top"/>
  <outline>
    <contour>
      <point x="115" y="42" type="line" smooth="yes"/>
      <point x="82" y="-104"/>
      <point x="63" y="-160"/>
      <point x="28" y="-160" type="curve" smooth="yes"/>
      <point x="1" y="-160"/>
      <point x="0" y="-117"/>
      <point x="-49" y="-117" type="curve" smooth="yes"/>
      <point x="-62" y="-117"/>
      <point x="-78" y="-127"/>
      <point x="-78" y="-148" type="curve" smooth="yes"/>
      <point x="-78" y="-180"/>
      <point x="-40" y="-196"/>
      <point x="4" y="-196" type="curve" smooth="yes"/>
      <point x="105" y="-196"/>
      <point x="153" y="-111"/>
      <point x="184" y="24" type="curve" smooth="yes"/>
      <point x="236" y="250" type="line"/>
      <point x="162" y="250" type="line"/>
    </contour>
    <contour>
      <point x="162" y="250" type="line"/>
      <point x="236" y="250" type="line"/>
      <point x="252" y="320" type="line" smooth="yes"/>
      <point x="266" y="383"/>
      <point x="277" y="407"/>
      <point x="277" y="421" type="curve" smooth="yes"/>
      <point x="277" y="431"/>
      <point x="272" y="436"/>
      <point x="265" y="436" type="curve"/>
      <point x="233" y="429"/>
      <point x="175" y="425"/>
      <point x="128" y="423" type="curve"/>
      <point x="121" y="415"/>
      <point x="123" y="404"/>
      <point x="129" y="395" type="curve"/>
      <point x="169" y="392" type="line" smooth="yes"/>
      <point x="181" y="391"/>
      <point x="187" y="382"/>
      <point x="187" y="371" type="curve" smooth="yes"/>
      <point x="187" y="363"/>
      <point x="184" y="349"/>
      <point x="178" y="321" type="curve" smooth="yes"/>
    </contour>
  </outline>
  <guideline angle="257.3" x="178" y="321"/>
  <guideline angle="77.125" x="236" y="250"/>
</glyph>
<glyph name="uni0272" format="2">
  <advance width="585"/>
  <unicode hex="0272"/>
  <outline>
    <contour>
      <point x="-24" y="-189" type="curve" smooth="yes"/>
      <point x="-24" y="-208"/>
      <point x="-7" y="-229"/>
      <point x="39" y="-229" type="curve" smooth="yes"/>
      <point x="143" y="-229"/>
      <point x="198" y="-107"/>
      <point x="240" y="53" type="curve" smooth="yes"/>
      <point x="245" y="72" type="line"/>
      <point x="169" y="72" type="line"/>
      <point x="164" y="50" type="line" smooth="yes"/>
      <point x="129" y="-105"/>
      <point x="98" y="-202"/>
      <point x="52" y="-202" type="curve" smooth="yes"/>
      <point x="16" y="-202"/>
      <point x="38" y="-163"/>
      <point x="-1" y="-163" type="curve" smooth="yes"/>
      <point x="-15" y="-163"/>
      <point x="-24" y="-174"/>
    </contour>
    <contour>
      <point x="222" y="310" type="line"/>
      <point x="169" y="72" type="line"/>
      <point x="245" y="72" type="line"/>
      <point x="283" y="238" type="line"/>
      <point x="308" y="271"/>
      <point x="390" y="379"/>
      <point x="437" y="379" type="curve" smooth="yes"/>
      <point x="458" y="379"/>
      <point x="472" y="374"/>
      <point x="472" y="343" type="curve" smooth="yes"/>
      <point x="472" y="331"/>
      <point x="466" y="303"/>
      <point x="459" y="275" type="curve" smooth="yes"/>
      <point x="421" y="115" type="line" smooth="yes"/>
      <point x="413" y="83"/>
      <point x="404" y="42"/>
      <point x="404" y="23" type="curve" smooth="yes"/>
      <point x="404" y="4"/>
      <point x="415" y="-10"/>
      <point x="445" y="-10" type="curve" smooth="yes"/>
      <point x="493" y="-10"/>
      <point x="541" y="24"/>
      <point x="587" y="83" type="curve"/>
      <point x="584" y="92"/>
      <point x="578" y="100"/>
      <point x="564" y="100" type="curve"/>
      <point x="538" y="70"/>
      <point x="509" y="50"/>
      <point x="499" y="50" type="curve" smooth="yes"/>
      <point x="492" y="50"/>
      <point x="489" y="55"/>
      <point x="489" y="67" type="curve" smooth="yes"/>
      <point x="489" y="76"/>
      <point x="494" y="98"/>
      <point x="500" y="124" type="curve" smooth="yes"/>
      <point x="538" y="283" type="line" smooth="yes"/>
      <point x="546" y="318"/>
      <point x="551" y="341"/>
      <point x="551" y="359" type="curve" smooth="yes"/>
      <point x="551" y="419"/>
      <point x="524" y="439"/>
      <point x="485" y="439" type="curve" smooth="yes"/>
      <point x="431" y="439"/>
      <point x="375" y="401"/>
      <point x="298" y="310" type="curve"/>
    </contour>
    <contour>
      <point x="222" y="310" type="line"/>
      <point x="295" y="310" type="line"/>
      <point x="297" y="320" type="line" smooth="yes"/>
      <point x="310" y="383"/>
      <point x="324" y="407"/>
      <point x="324" y="421" type="curve" smooth="yes"/>
      <point x="324" y="431"/>
      <point x="319" y="436"/>
      <point x="312" y="436" type="curve"/>
      <point x="280" y="429"/>
      <point x="222" y="425"/>
      <point x="175" y="423" type="curve"/>
      <point x="168" y="415"/>
      <point x="170" y="404"/>
      <point x="176" y="395" type="curve"/>
      <point x="216" y="392" type="line" smooth="yes"/>
      <point x="228" y="391"/>
      <point x="234" y="382"/>
      <point x="234" y="371" type="curve" smooth="yes"/>
      <point x="234" y="363"/>
      <point x="230" y="342"/>
      <point x="223" y="314" type="curve" smooth="yes"/>
    </contour>
  </outline>
  <guideline angle="77.1957" x="248" y="84"/>
  <guideline angle="0" x="0" y="72"/>
</glyph>
<glyph name="uni0273" format="2">
  <advance width="459"/>
  <unicode hex="0273"/>
  <outline>
    <contour>
      <point x="327" y="1" type="line" smooth="yes"/>
      <point x="303" y="-107"/>
      <point x="367" y="-207"/>
      <point x="464" y="-207" type="curve" smooth="yes"/>
      <point x="486" y="-207"/>
      <point x="508" y="-195"/>
      <point x="508" y="-170" type="curve" smooth="yes"/>
      <point x="508" y="-149"/>
      <point x="485" y="-138"/>
      <point x="467" y="-138" type="curve" smooth="yes"/>
      <point x="446" y="-138"/>
      <point x="433" y="-153"/>
      <point x="419" y="-153" type="curve" smooth="yes"/>
      <point x="410" y="-153"/>
      <point x="391" y="-147"/>
      <point x="391" y="-103" type="curve" smooth="yes"/>
      <point x="391" y="-71"/>
      <point x="394" y="-36"/>
      <point x="413" y="40" type="curve" smooth="yes"/>
      <point x="421" y="72" type="line"/>
      <point x="343" y="72" type="line"/>
    </contour>
    <contour>
      <point x="155" y="310" type="line"/>
      <point x="102" y="72" type="line"/>
      <point x="178" y="72" type="line"/>
      <point x="216" y="238" type="line"/>
      <point x="241" y="271"/>
      <point x="323" y="379"/>
      <point x="370" y="379" type="curve" smooth="yes"/>
      <point x="391" y="379"/>
      <point x="405" y="374"/>
      <point x="405" y="343" type="curve" smooth="yes"/>
      <point x="405" y="331"/>
      <point x="399" y="303"/>
      <point x="392" y="275" type="curve" smooth="yes"/>
      <point x="343" y="72" type="line"/>
      <point x="421" y="72" type="line"/>
      <point x="471" y="283" type="line" smooth="yes"/>
      <point x="479" y="318"/>
      <point x="484" y="341"/>
      <point x="484" y="359" type="curve" smooth="yes"/>
      <point x="484" y="419"/>
      <point x="457" y="439"/>
      <point x="418" y="439" type="curve" smooth="yes"/>
      <point x="364" y="439"/>
      <point x="308" y="401"/>
      <point x="231" y="310" type="curve"/>
    </contour>
    <contour>
      <point x="155" y="310" type="line"/>
      <point x="228" y="310" type="line"/>
      <point x="230" y="320" type="line" smooth="yes"/>
      <point x="243" y="383"/>
      <point x="257" y="407"/>
      <point x="257" y="421" type="curve" smooth="yes"/>
      <point x="257" y="431"/>
      <point x="252" y="436"/>
      <point x="245" y="436" type="curve"/>
      <point x="213" y="429"/>
      <point x="155" y="425"/>
      <point x="108" y="423" type="curve"/>
      <point x="101" y="415"/>
      <point x="103" y="404"/>
      <point x="109" y="395" type="curve"/>
      <point x="149" y="392" type="line" smooth="yes"/>
      <point x="161" y="391"/>
      <point x="167" y="382"/>
      <point x="167" y="371" type="curve" smooth="yes"/>
      <point x="167" y="363"/>
      <point x="163" y="342"/>
      <point x="156" y="314" type="curve" smooth="yes"/>
    </contour>
    <contour>
      <point x="90" y="12" type="curve" smooth="yes"/>
      <point x="90" y="-1"/>
      <point x="98" y="-10"/>
      <point x="129" y="-10" type="curve" smooth="yes"/>
      <point x="152" y="-10"/>
      <point x="164" y="8"/>
      <point x="172" y="45" type="curve" smooth="yes"/>
      <point x="178" y="72" type="line"/>
      <point x="102" y="72" type="line"/>
      <point x="97" y="48" type="line" smooth="yes"/>
      <point x="94" y="35"/>
      <point x="90" y="20"/>
    </contour>
  </outline>
  <guideline angle="0" x="0" y="72"/>
  <guideline angle="76.5588" x="433" y="124"/>
  <guideline angle="256.64" x="392" y="275"/>
</glyph>
<glyph name="uni0300" format="2">
  <unicode hex="0300"/>
  <anchor x="-18" y="500" name="_top"/>
  <outline>
    <contour>
      <point x="-93" y="661" type="line"/>
      <point x="-96" y="662"/>
      <point x="-103" y="663"/>
      <point x="-108" y="663" type="curve" smooth="yes"/>
      <point x="-137" y="663"/>
      <point x="-155" y="647"/>
      <point x="-159" y="640" type="curve"/>
      <point x="-159" y="629" type="line"/>
      <point x="-25" y="520" type="line" smooth="yes"/>
      <point x="-7" y="505"/>
      <point x="0" y="500"/>
      <point x="7" y="500" type="curve" smooth="yes"/>
      <point x="14" y="500"/>
      <point x="19" y="505"/>
      <point x="19" y="511" type="curve" smooth="yes"/>
      <point x="19" y="516"/>
      <point x="17" y="525"/>
      <point x="9" y="535" type="curve" smooth="yes"/>
    </contour>
  </outline>
  <guideline angle="78" x="-169" y="11"/>
</glyph>
<glyph name="uni0303" format="2">
  <unicode hex="0303"/>
  <anchor x="-28" y="500" name="_top"/>
  <outline>
    <contour>
      <point x="28" y="544" type="curve" smooth="yes"/>
      <point x="9" y="544"/>
      <point x="-6" y="554"/>
      <point x="-20" y="566" type="curve" smooth="yes"/>
      <point x="-37" y="580"/>
      <point x="-56" y="594"/>
      <point x="-86" y="594" type="curve" smooth="yes"/>
      <point x="-129" y="594"/>
      <point x="-158" y="564"/>
      <point x="-184" y="505" type="curve"/>
      <point x="-179" y="504"/>
      <point x="-165" y="501"/>
      <point x="-161" y="500" type="curve"/>
      <point x="-144" y="533"/>
      <point x="-128" y="548"/>
      <point x="-102" y="548" type="curve" smooth="yes"/>
      <point x="-85" y="548"/>
      <point x="-69" y="537"/>
      <point x="-53" y="526" type="curve"/>
      <point x="-35" y="512"/>
      <point x="-16" y="500"/>
      <point x="6" y="500" type="curve" smooth="yes"/>
      <point x="52" y="500"/>
      <point x="87" y="530"/>
      <point x="111" y="590" type="curve"/>
      <point x="107" y="591"/>
      <point x="92" y="595"/>
      <point x="88" y="596" type="curve"/>
      <point x="66" y="554"/>
      <point x="50" y="544"/>
    </contour>
  </outline>
</glyph>
<glyph name="uni0306" format="2">
  <unicode hex="0306"/>
  <anchor x="-64" y="500" name="_top"/>
  <outline>
    <contour>
      <point x="-137" y="647" type="curve"/>
      <point x="-167" y="635" type="line"/>
      <point x="-170" y="550"/>
      <point x="-129" y="500"/>
      <point x="-59" y="500" type="curve" smooth="yes"/>
      <point x="0" y="500"/>
      <point x="74" y="549"/>
      <point x="103" y="635" type="curve"/>
      <point x="79" y="647" type="line"/>
      <point x="57" y="589"/>
      <point x="4" y="557"/>
      <point x="-48" y="557" type="curve" smooth="yes"/>
      <point x="-102" y="557"/>
      <point x="-137" y="594"/>
    </contour>
  </outline>
</glyph>
<glyph name="uni030F" format="2">
  <unicode hex="030F"/>
  <anchor x="-17" y="500" name="_top"/>
  <outline>
    <contour>
      <point x="-19" y="640" type="curve" smooth="yes"/>
      <point x="-20.0505" y="635.01"/>
      <point x="-21" y="629"/>
      <point x="-17" y="624" type="curve"/>
      <point x="61" y="503" type="line" smooth="yes"/>
      <point x="62.2115" y="501.121"/>
      <point x="64" y="500"/>
      <point x="67" y="500" type="curve" smooth="yes"/>
      <point x="78" y="500"/>
      <point x="83" y="510"/>
      <point x="84" y="513" type="curve"/>
      <point x="84" y="514"/>
      <point x="84" y="516"/>
      <point x="84" y="519" type="curve"/>
      <point x="50" y="662" type="line" smooth="yes"/>
      <point x="47.8674" y="670.97"/>
      <point x="41" y="676"/>
      <point x="30" y="676" type="curve" smooth="yes"/>
      <point x="-1" y="676"/>
      <point x="-16.0504" y="654.011"/>
    </contour>
    <contour>
      <point x="-152" y="634" type="curve"/>
      <point x="-154" y="628"/>
      <point x="-153" y="621"/>
      <point x="-149" y="615" type="curve"/>
      <point x="-58" y="505" type="line" smooth="yes"/>
      <point x="-56.1971" y="502.821"/>
      <point x="-54" y="502"/>
      <point x="-51" y="502" type="curve" smooth="yes"/>
      <point x="-49" y="502"/>
      <point x="-37" y="506"/>
      <point x="-35" y="516" type="curve"/>
      <point x="-35" y="517"/>
      <point x="-35" y="519"/>
      <point x="-36" y="520" type="curve"/>
      <point x="-85" y="659" type="line"/>
      <point x="-89" y="668"/>
      <point x="-95" y="670"/>
      <point x="-107" y="670" type="curve" smooth="yes"/>
      <point x="-131" y="670"/>
      <point x="-149" y="652"/>
    </contour>
  </outline>
</glyph>
<glyph name="uni031A" format="2">
  <unicode hex="031A"/>
  <anchor x="136" y="580" name="_top"/>
  <outline>
    <contour>
      <point x="259" y="437" type="curve"/>
      <point x="289" y="584" type="line"/>
      <point x="280" y="596" type="line"/>
      <point x="134" y="596" type="line"/>
      <point x="124.48" y="590.923"/>
      <point x="110.562" y="583.756"/>
      <point x="110.562" y="571.312" type="curve" smooth="yes"/>
      <point x="110.562" y="565.875"/>
      <point x="112.25" y="558.75"/>
      <point x="119" y="555" type="curve"/>
      <point x="239" y="555" type="line"/>
      <point x="214" y="433" type="line"/>
      <point x="222" y="425"/>
      <point x="231" y="424"/>
      <point x="237" y="424" type="curve" smooth="yes"/>
      <point x="242" y="424"/>
      <point x="252" y="428"/>
    </contour>
  </outline>
</glyph>
<glyph name="uni0344" format="2">
  <unicode hex="0344"/>
  <anchor x="-81" y="500" name="_top"/>
  <outline>
    <contour>
      <point x="26.7731" y="752" type="curve" smooth="yes"/>
      <point x="13.7731" y="752"/>
      <point x="2.00604" y="745.87"/>
      <point x="-4.22692" y="735" type="curve" smooth="yes"/>
      <point x="-86.2269" y="592" type="line" smooth="yes"/>
      <point x="-87.8" y="589.257"/>
      <point x="-90.071" y="583.308"/>
      <point x="-90.071" y="579.674" type="curve" smooth="yes"/>
      <point x="-90.071" y="574.058"/>
      <point x="-87.0675" y="569"/>
      <point x="-78.2269" y="569" type="curve" smooth="yes"/>
      <point x="-74.2269" y="569"/>
      <point x="-68.6877" y="573.391"/>
      <point x="-65.2269" y="577" type="curve" smooth="yes"/>
      <point x="51.7731" y="699" type="line" smooth="yes"/>
      <point x="57.8987" y="705.387"/>
      <point x="62.3103" y="713.594"/>
      <point x="62.3103" y="722.323" type="curve" smooth="yes"/>
      <point x="62.3103" y="739.603"/>
      <point x="44.9549" y="752"/>
    </contour>
    <contour>
      <point x="-47.1009" y="532.34" type="curve" smooth="yes"/>
      <point x="-47.1009" y="511.334"/>
      <point x="-31.2751" y="495"/>
      <point x="-9.22692" y="495" type="curve" smooth="yes"/>
      <point x="19.4467" y="495"/>
      <point x="46.6471" y="521.042"/>
      <point x="46.6471" y="549.66" type="curve" smooth="yes"/>
      <point x="46.6471" y="570.666"/>
      <point x="30.8213" y="587"/>
      <point x="8.77308" y="587" type="curve" smooth="yes"/>
      <point x="-18.7723" y="587"/>
      <point x="-47.1009" y="560.643"/>
    </contour>
    <contour>
      <point x="-207.101" y="532.34" type="curve" smooth="yes"/>
      <point x="-207.101" y="511.334"/>
      <point x="-191.275" y="495"/>
      <point x="-169.227" y="495" type="curve" smooth="yes"/>
      <point x="-140.553" y="495"/>
      <point x="-113.353" y="521.042"/>
      <point x="-113.353" y="549.66" type="curve" smooth="yes"/>
      <point x="-113.353" y="570.666"/>
      <point x="-129.179" y="587"/>
      <point x="-151.227" y="587" type="curve" smooth="yes"/>
      <point x="-178.772" y="587"/>
      <point x="-207.101" y="560.643"/>
    </contour>
  </outline>
  <guideline angle="0" x="0" y="500"/>
</glyph>
<glyph name="uni0345" format="2">
  <unicode hex="0345"/>
  <anchor x="-167" y="-60" name="_ypogegrammeni"/>
  <outline>
    <contour>
      <point x="-232" y="-73" type="line"/>
      <point x="-252" y="-155" type="line" smooth="yes"/>
      <point x="-253.883" y="-162.72"/>
      <point x="-254.374" y="-169.952"/>
      <point x="-254.374" y="-176.534" type="curve" smooth="yes"/>
      <point x="-254.374" y="-219.008"/>
      <point x="-224.56" y="-237"/>
      <point x="-183" y="-237" type="curve" smooth="yes"/>
      <point x="-158" y="-237"/>
      <point x="-109" y="-223"/>
      <point x="-80" y="-154" type="curve"/>
      <point x="-104" y="-146" type="line"/>
      <point x="-116" y="-173"/>
      <point x="-137" y="-197"/>
      <point x="-155" y="-197" type="curve" smooth="yes"/>
      <point x="-171.665" y="-197"/>
      <point x="-176.287" y="-179.328"/>
      <point x="-176.3" y="-160.265" type="curve" smooth="yes"/>
      <point x="-176.311" y="-144.296"/>
      <point x="-173.088" y="-127.351"/>
      <point x="-171" y="-119" type="curve" smooth="yes"/>
      <point x="-158" y="-67" type="line"/>
      <point x="-178" y="-60" type="line"/>
    </contour>
  </outline>
</glyph>
<glyph name="uni0354" format="2">
  <unicode hex="0354"/>
  <anchor x="-194" y="-60" name="_b.minus-60"/>
  <outline>
    <contour>
      <point x="-257" y="-158" type="line"/>
      <point x="-82" y="-98" type="line"/>
      <point x="-74" y="-60" type="line"/>
      <point x="-323" y="-144" type="line"/>
      <point x="-329" y="-172" type="line"/>
      <point x="-114" y="-256" type="line"/>
      <point x="-106" y="-218" type="line"/>
    </contour>
  </outline>
</glyph>
<glyph name="kappa" format="2">
  <advance width="506"/>
  <unicode hex="03BA"/>
  <outline>
    <contour>
      <point x="90" y="17" type="curve" smooth="yes"/>
      <point x="90" y="1"/>
      <point x="99" y="-10"/>
      <point x="131" y="-10" type="curve" smooth="yes"/>
      <point x="168" y="-10"/>
      <point x="168" y="45"/>
      <point x="175" y="72" type="curve" smooth="yes"/>
      <point x="207" y="205" type="line"/>
      <point x="225" y="205"/>
      <point x="239" y="201"/>
      <point x="244" y="193" type="curve" smooth="yes"/>
      <point x="320" y="65" type="line" smooth="yes"/>
      <point x="337" y="36"/>
      <point x="365" y="-10"/>
      <point x="395" y="-10" type="curve" smooth="yes"/>
      <point x="442" y="-10"/>
      <point x="478" y="18"/>
      <point x="501" y="62" type="curve"/>
      <point x="494" y="70"/>
      <point x="487" y="76"/>
      <point x="476" y="76" type="curve"/>
      <point x="467" y="63"/>
      <point x="443" y="36"/>
      <point x="425" y="36" type="curve" smooth="yes"/>
      <point x="418" y="36"/>
      <point x="413" y="47"/>
      <point x="394" y="80" type="curve" smooth="yes"/>
      <point x="295" y="252" type="line"/>
      <point x="382" y="341" type="line" smooth="yes"/>
      <point x="403" y="363"/>
      <point x="418" y="368"/>
      <point x="432" y="368" type="curve" smooth="yes"/>
      <point x="455" y="368"/>
      <point x="459" y="354"/>
      <point x="488" y="354" type="curve" smooth="yes"/>
      <point x="511" y="354"/>
      <point x="534" y="382"/>
      <point x="534" y="404" type="curve" smooth="yes"/>
      <point x="534" y="432"/>
      <point x="512" y="439"/>
      <point x="485" y="439" type="curve" smooth="yes"/>
      <point x="438" y="439"/>
      <point x="360" y="367"/>
      <point x="330" y="337" type="curve" smooth="yes"/>
      <point x="279" y="286" type="line" smooth="yes"/>
      <point x="261" y="268"/>
      <point x="242" y="241"/>
      <point x="213" y="241" type="curve"/>
      <point x="229" y="310" type="line"/>
      <point x="156" y="310" type="line"/>
      <point x="103" y="72" type="line" smooth="yes"/>
      <point x="100" y="60"/>
      <point x="90" y="28"/>
    </contour>
    <contour>
      <point x="156" y="310" type="line"/>
      <point x="229" y="310" type="line"/>
      <point x="231" y="320" type="line" smooth="yes"/>
      <point x="244" y="383"/>
      <point x="258" y="407"/>
      <point x="258" y="421" type="curve" smooth="yes"/>
      <point x="258" y="431"/>
      <point x="253" y="436"/>
      <point x="246" y="436" type="curve"/>
      <point x="214" y="429"/>
      <point x="156" y="425"/>
      <point x="109" y="423" type="curve"/>
      <point x="102" y="415"/>
      <point x="104" y="404"/>
      <point x="110" y="395" type="curve"/>
      <point x="150" y="392" type="line" smooth="yes"/>
      <point x="162" y="391"/>
      <point x="168" y="382"/>
      <point x="168" y="371" type="curve" smooth="yes"/>
      <point x="168" y="363"/>
      <point x="164" y="342"/>
      <point x="157" y="314" type="curve" smooth="yes"/>
    </contour>
  </outline>
</glyph>
<glyph name="uni1FC1" format="2">
  <advance width="368"/>
  <unicode hex="1FC1"/>
  <anchor x="312" y="500" name="_t.gr_LC"/>
  <outline>
    <contour>
      <point x="385.797" y="671" type="curve" smooth="yes"/>
      <point x="345.797" y="671"/>
      <point x="334.797" y="716"/>
      <point x="279.797" y="716" type="curve" smooth="yes"/>
      <point x="238.797" y="716"/>
      <point x="211.797" y="688"/>
      <point x="186.797" y="633" type="curve"/>
      <point x="207.797" y="628" type="line"/>
      <point x="224.797" y="658"/>
      <point x="241.797" y="671"/>
      <point x="262.797" y="671" type="curve" smooth="yes"/>
      <point x="301.797" y="671"/>
      <point x="322.797" y="628"/>
      <point x="364.797" y="628" type="curve" smooth="yes"/>
      <point x="407.797" y="628"/>
      <point x="439.797" y="654"/>
      <point x="463.797" y="710" type="curve"/>
      <point x="442.797" y="716" type="line"/>
      <point x="421.797" y="682"/>
      <point x="406.797" y="671"/>
    </contour>
    <contour>
      <point x="334.134" y="536.002" type="curve" smooth="yes"/>
      <point x="334.134" y="515.369"/>
      <point x="349.133" y="500"/>
      <point x="371.048" y="500" type="curve" smooth="yes"/>
      <point x="399.406" y="500"/>
      <point x="426.963" y="525.212"/>
      <point x="426.963" y="554.04" type="curve" smooth="yes"/>
      <point x="426.963" y="574.863"/>
      <point x="411.963" y="591"/>
      <point x="390.048" y="591" type="curve" smooth="yes"/>
      <point x="361.6" y="591"/>
      <point x="334.134" y="564.709"/>
    </contour>
    <contour>
      <point x="173.786" y="534.671" type="curve" smooth="yes"/>
      <point x="173.786" y="514.711"/>
      <point x="188.607" y="500"/>
      <point x="210.048" y="500" type="curve" smooth="yes"/>
      <point x="238.406" y="500"/>
      <point x="265.963" y="525.212"/>
      <point x="265.963" y="554.04" type="curve" smooth="yes"/>
      <point x="265.963" y="574.863"/>
      <point x="250.963" y="591"/>
      <point x="229.048" y="591" type="curve" smooth="yes"/>
      <point x="199.95" y="591"/>
      <point x="173.786" y="563.53"/>
    </contour>
  </outline>
</glyph>
<glyph name="uni1FCD" format="2">
  <advance width="309"/>
  <unicode hex="1FCD"/>
  <anchor x="269" y="500" name="_t.gr_LC"/>
  <outline>
    <contour>
      <point x="227.952" y="678" type="curve" smooth="yes"/>
      <point x="198.151" y="678"/>
      <point x="172.274" y="664.275"/>
      <point x="172.274" y="632.505" type="curve" smooth="yes"/>
      <point x="172.274" y="618.516"/>
      <point x="179.71" y="604"/>
      <point x="210.952" y="604" type="curve" smooth="yes"/>
      <point x="216.253" y="604"/>
      <point x="218.687" y="598.838"/>
      <point x="218.687" y="592.423" type="curve" smooth="yes"/>
      <point x="218.687" y="557.259"/>
      <point x="173.982" y="523.347"/>
      <point x="142.952" y="517" type="curve"/>
      <point x="140.869" y="510.764"/>
      <point x="140.732" y="505.585"/>
      <point x="143.952" y="500" type="curve"/>
      <point x="209.156" y="503.544"/>
      <point x="274.121" y="556.588"/>
      <point x="274.121" y="625.266" type="curve" smooth="yes"/>
      <point x="274.121" y="653.814"/>
      <point x="259.099" y="678"/>
    </contour>
    <contour>
      <point x="301.952" y="639" type="curve"/>
      <point x="354.952" y="504" type="line" smooth="yes"/>
      <point x="356.107" y="501.056"/>
      <point x="357.952" y="499"/>
      <point x="361.952" y="499" type="curve" smooth="yes"/>
      <point x="371.952" y="499"/>
      <point x="377.952" y="506"/>
      <point x="378.952" y="511" type="curve"/>
      <point x="378.952" y="515" type="line"/>
      <point x="372.952" y="667" type="line"/>
      <point x="371.952" y="678"/>
      <point x="362.952" y="685"/>
      <point x="345.952" y="685" type="curve" smooth="yes"/>
      <point x="321.952" y="685"/>
      <point x="304.952" y="668"/>
      <point x="300.952" y="652" type="curve" smooth="yes"/>
      <point x="299.952" y="648"/>
      <point x="300.952" y="643"/>
    </contour>
  </outline>
  <guideline angle="0" x="0" y="500"/>
</glyph>
<glyph name="uni1FEE" format="2">
  <advance width="368"/>
  <unicode hex="1FEE"/>
  <anchor x="304" y="500" name="_t.gr_LC"/>
  <outline>
    <contour>
      <point x="405.048" y="758" type="curve" smooth="yes"/>
      <point x="394.048" y="758"/>
      <point x="380.338" y="751.837"/>
      <point x="374.048" y="741" type="curve" smooth="yes"/>
      <point x="291.048" y="598" type="line" smooth="yes"/>
      <point x="289.239" y="594.882"/>
      <point x="287.048" y="590"/>
      <point x="287.048" y="589" type="curve"/>
      <point x="286.048" y="582"/>
      <point x="292.048" y="576"/>
      <point x="300.048" y="576" type="curve" smooth="yes"/>
      <point x="304.048" y="576"/>
      <point x="308.116" y="578.934"/>
      <point x="312.048" y="583" type="curve" smooth="yes"/>
      <point x="430.048" y="705" type="line" smooth="yes"/>
      <point x="434.964" y="710.083"/>
      <point x="437.086" y="715.991"/>
      <point x="438.048" y="720" type="curve" smooth="yes"/>
      <point x="443.086" y="740.991"/>
      <point x="425.048" y="758"/>
    </contour>
    <contour>
      <point x="331.048" y="545" type="curve" smooth="yes"/>
      <point x="326.048" y="520"/>
      <point x="342.048" y="500"/>
      <point x="367.048" y="500" type="curve" smooth="yes"/>
      <point x="392.048" y="500"/>
      <point x="417.048" y="520"/>
      <point x="422.048" y="545" type="curve" smooth="yes"/>
      <point x="427.048" y="570"/>
      <point x="411.048" y="591"/>
      <point x="386.048" y="591" type="curve" smooth="yes"/>
      <point x="361.048" y="591"/>
      <point x="336.048" y="570"/>
    </contour>
    <contour>
      <point x="171.048" y="545" type="curve" smooth="yes"/>
      <point x="165.524" y="519.891"/>
      <point x="182.048" y="500"/>
      <point x="206.048" y="500" type="curve" smooth="yes"/>
      <point x="231.048" y="500"/>
      <point x="256.048" y="520"/>
      <point x="262.048" y="545" type="curve"/>
      <point x="266.048" y="570"/>
      <point x="250.048" y="591"/>
      <point x="225.048" y="591" type="curve" smooth="yes"/>
      <point x="201.048" y="591"/>
      <point x="176.526" y="569.9"/>
    </contour>
  </outline>
</glyph>
<glyph name="uni1FEF" format="2">
  <advance width="166"/>
  <unicode hex="1FEF"/>
  <anchor x="206" y="500" name="_t.gr_UC"/>
  <anchor x="206" y="500" name="_t.gr_LC"/>
  <outline>
    <contour>
      <point x="182.947" y="672" type="curve" smooth="yes"/>
      <point x="167.143" y="662.661"/>
      <point x="158.841" y="652.024"/>
      <point x="155.947" y="639" type="curve" smooth="yes"/>
      <point x="154.841" y="634.022"/>
      <point x="155.642" y="629.832"/>
      <point x="157.947" y="626" type="curve" smooth="yes"/>
      <point x="231.947" y="503" type="line"/>
      <point x="233.947" y="501"/>
      <point x="236.947" y="500"/>
      <point x="239.947" y="500" type="curve" smooth="yes"/>
      <point x="243.947" y="500"/>
      <point x="247.688" y="501.284"/>
      <point x="250.947" y="504" type="curve" smooth="yes"/>
      <point x="253.717" y="506.308"/>
      <point x="255.947" y="509"/>
      <point x="256.947" y="512" type="curve"/>
      <point x="256.947" y="513"/>
      <point x="255.947" y="514"/>
      <point x="255.947" y="515" type="curve"/>
      <point x="225.947" y="661" type="line" smooth="yes"/>
      <point x="224.921" y="665.995"/>
      <point x="221.947" y="670"/>
      <point x="216.947" y="674" type="curve"/>
      <point x="211.947" y="676"/>
      <point x="206.947" y="677"/>
      <point x="201.947" y="677" type="curve" smooth="yes"/>
      <point x="195.947" y="677"/>
      <point x="189.155" y="675.668"/>
    </contour>
  </outline>
</glyph>
<glyph name="uni1FFE" format="2">
  <advance width="168"/>
  <unicode hex="1FFE"/>
  <anchor x="267" y="652" name="_t.gr"/>
  <outline>
    <contour>
      <point x="222.597" y="652" type="curve" smooth="yes"/>
      <point x="182.039" y="652"/>
      <point x="154.833" y="623.835"/>
      <point x="154.833" y="581.849" type="curve" smooth="yes"/>
      <point x="154.833" y="527.913"/>
      <point x="186.57" y="484.659"/>
      <point x="234.7" y="473" type="curve"/>
      <point x="236.032" y="475.83"/>
      <point x="241.1" y="486.598"/>
      <point x="242.7" y="490" type="curve"/>
      <point x="215.257" y="495.629"/>
      <point x="196.571" y="518.721"/>
      <point x="196.571" y="547.005" type="curve" smooth="yes"/>
      <point x="196.571" y="563.365"/>
      <point x="203.6" y="576"/>
      <point x="212.7" y="576" type="curve" smooth="yes"/>
      <point x="245.337" y="576"/>
      <point x="267.304" y="594.371"/>
      <point x="267.304" y="615.695" type="curve" smooth="yes"/>
      <point x="267.304" y="637.457"/>
      <point x="253.135" y="652"/>
    </contour>
  </outline>
  <guideline angle="90" x="267" y="0"/>
  <guideline angle="0" x="0" y="652"/>
</glyph>
<glyph name="quoteright" format="2">
  <advance width="268"/>
  <unicode hex="2019"/>
  <outline>
    <contour>
      <point x="268.377" y="728" type="curve" smooth="yes"/>
      <point x="233.476" y="728"/>
      <point x="209.377" y="707.278"/>
      <point x="209.377" y="678" type="curve" smooth="yes"/>
      <point x="209.377" y="654"/>
      <point x="220.172" y="647.204"/>
      <point x="237.988" y="638.923" type="curve" smooth="yes"/>
      <point x="245.17" y="635.584" type="line" smooth="yes"/>
      <point x="260.126" y="628.632"/>
      <point x="274.377" y="621.332"/>
      <point x="274.377" y="611" type="curve" smooth="yes"/>
      <point x="274.377" y="583"/>
      <point x="223.377" y="536"/>
      <point x="170.377" y="524" type="curve"/>
      <point x="167.377" y="515"/>
      <point x="170.377" y="507"/>
      <point x="178.377" y="501" type="curve"/>
      <point x="261.423" y="515.906"/>
      <point x="322.377" y="575.873"/>
      <point x="322.377" y="664" type="curve" smooth="yes"/>
      <point x="322.377" y="702.37"/>
      <point x="300.752" y="728"/>
    </contour>
  </outline>
  <guideline angle="0" x="0" y="500"/>
  <guideline angle="0" x="0" y="728"/>
</glyph>
<glyph name="uni2027" format="2">
  <advance width="166"/>
  <unicode hex="2027"/>
  <outline>
    <contour>
      <point x="107" y="314" type="curve" smooth="yes"/>
      <point x="107" y="292"/>
      <point x="124" y="276"/>
      <point x="146" y="276" type="curve" smooth="yes"/>
      <point x="177" y="276"/>
      <point x="209" y="304"/>
      <point x="209" y="336" type="curve" smooth="yes"/>
      <point x="209" y="358"/>
      <point x="193" y="375"/>
      <point x="169" y="375" type="curve" smooth="yes"/>
      <point x="138" y="375"/>
      <point x="107" y="346"/>
    </contour>
  </outline>
</glyph>
<glyph name="newsheqel" format="2">
  <advance width="944"/>
  <unicode hex="20AA"/>
  <outline>
    <contour>
      <point x="932" y="311" type="line" smooth="yes"/>
      <point x="932" y="102"/>
      <point x="840" y="0"/>
      <point x="654" y="0" type="curve" smooth="yes"/>
      <point x="412" y="0" type="line"/>
      <point x="412" y="413" type="line"/>
      <point x="497" y="413" type="line"/>
      <point x="497" y="90" type="line"/>
      <point x="687" y="90" type="line" smooth="yes"/>
      <point x="792" y="90"/>
      <point x="847" y="155"/>
      <point x="847" y="315" type="curve" smooth="yes"/>
      <point x="847" y="658" type="line"/>
      <point x="932" y="658" type="line"/>
    </contour>
    <contour>
      <point x="715" y="245" type="line"/>
      <point x="630" y="245" type="line"/>
      <point x="630" y="343" type="line" smooth="yes"/>
      <point x="630" y="511"/>
      <point x="587" y="575"/>
      <point x="454" y="575" type="curve" smooth="yes"/>
      <point x="280" y="575" type="line"/>
      <point x="280" y="0" type="line"/>
      <point x="195" y="0" type="line"/>
      <point x="195" y="658" type="line"/>
      <point x="455" y="658" type="line" smooth="yes"/>
      <point x="644" y="658"/>
      <point x="715" y="574"/>
      <point x="715" y="347" type="curve" smooth="yes"/>
    </contour>
  </outline>
</glyph>
<glyph name="uni25D5" format="2">
  <advance width="564"/>
  <unicode hex="25D5"/>
  <outline>
    <contour>
      <point x="90" y="219" type="curve" smooth="yes"/>
      <point x="90" y="90.1883"/>
      <point x="193.541" y="-15"/>
      <point x="323" y="-15" type="curve" smooth="yes"/>
      <point x="452.424" y="-15"/>
      <point x="557" y="89.8868"/>
      <point x="557" y="219" type="curve" smooth="yes"/>
      <point x="557" y="347.763"/>
      <point x="451.775" y="452"/>
      <point x="323" y="452" type="curve" smooth="yes"/>
      <point x="194.45" y="452"/>
      <point x="90" y="347.905"/>
    </contour>
    <contour>
      <point x="101" y="219" type="line"/>
      <point x="101" y="338.678"/>
      <point x="203.322" y="441"/>
      <point x="323" y="441" type="curve"/>
      <point x="323" y="219" type="line"/>
    </contour>
  </outline>
</glyph>
<glyph name="uni2C66" format="2">
  <advance width="398"/>
  <unicode hex="2C66"/>
  <outline>
    <component base="t" xOffset="40"/>
    <contour>
      <point x="235" y="181" type="line"/>
      <point x="493" y="431" type="line"/>
      <point x="491" y="444"/>
      <point x="483" y="454"/>
      <point x="466" y="454" type="curve"/>
      <point x="249" y="244" type="line"/>
    </contour>
    <contour>
      <point x="177" y="172" type="line"/>
      <point x="-2" y="-2" type="line"/>
      <point x="-3" y="-17"/>
      <point x="6" y="-28"/>
      <point x="22" y="-28" type="curve"/>
      <point x="163" y="108" type="line"/>
    </contour>
  </outline>
</glyph>
<glyph name="g.sc" format="2">
  <advance width="539"/>
  <anchor x="390" y="530" name="top"/>
  <outline>
    <contour>
      <point x="78" y="165" type="curve" smooth="yes"/>
      <point x="78" y="47.6186"/>
      <point x="165.644" y="-12"/>
      <point x="276" y="-12" type="curve" smooth="yes"/>
      <point x="344" y="-12"/>
      <point x="423" y="19"/>
      <point x="494" y="62" type="curve"/>
      <point x="488.48" y="67.9729"/>
      <point x="482.737" y="74.751"/>
      <point x="485" y="85" type="curve" smooth="yes"/>
      <point x="502" y="162" type="line" smooth="yes"/>
      <point x="508.056" y="189.432"/>
      <point x="523.08" y="193"/>
      <point x="548.835" y="193" type="curve"/>
      <point x="551.98" y="197"/>
      <point x="555.167" y="201.267"/>
      <point x="554.659" y="209.257" type="curve" smooth="yes"/>
      <point x="554.54" y="211.134"/>
      <point x="554.659" y="215.471"/>
      <point x="552.607" y="219" type="curve"/>
      <point x="539.381" y="218.321"/>
      <point x="509" y="218"/>
      <point x="481" y="218" type="curve" smooth="yes"/>
      <point x="474" y="218"/>
      <point x="465" y="218"/>
      <point x="455" y="218" type="curve" smooth="yes"/>
      <point x="419" y="218"/>
      <point x="371" y="219"/>
      <point x="370.295" y="219" type="curve"/>
      <point x="367.123" y="213.1"/>
      <point x="365.974" y="208.587"/>
      <point x="365.974" y="204.189" type="curve" smooth="yes"/>
      <point x="365.974" y="198.915"/>
      <point x="366.668" y="196.689"/>
      <point x="369.337" y="193" type="curve"/>
      <point x="408.624" y="193"/>
      <point x="429" y="185.799"/>
      <point x="429" y="171" type="curve" smooth="yes"/>
      <point x="429" y="168"/>
      <point x="428.642" y="164.931"/>
      <point x="428" y="162" type="curve" smooth="yes"/>
      <point x="405" y="57" type="line"/>
      <point x="374" y="32"/>
      <point x="334" y="15"/>
      <point x="299" y="15" type="curve" smooth="yes"/>
      <point x="201.557" y="15"/>
      <point x="161" y="99.4552"/>
      <point x="161" y="185" type="curve" smooth="yes"/>
      <point x="161" y="302.474"/>
      <point x="242.061" y="447"/>
      <point x="373" y="447" type="curve" smooth="yes"/>
      <point x="475" y="447"/>
      <point x="507" y="394"/>
      <point x="507" y="328" type="curve"/>
      <point x="510.048" y="326.134"/>
      <point x="515.912" y="324.919"/>
      <point x="520.247" y="324.919" type="curve" smooth="yes"/>
      <point x="525.442" y="324.919"/>
      <point x="529.07" y="326.134"/>
      <point x="534" y="328" type="curve"/>
      <point x="540.57" y="367.743"/>
      <point x="544.57" y="408.743"/>
      <point x="548" y="456" type="curve"/>
      <point x="524.876" y="456"/>
      <point x="418.175" y="474"/>
      <point x="392" y="474" type="curve" smooth="yes"/>
      <point x="219.965" y="474"/>
      <point x="78" y="338.74"/>
    </contour>
  </outline>
</glyph>
<glyph name="uni03030308" format="2">
  <anchor x="-134" y="500" name="_top"/>
  <outline>
    <contour>
      <point x="-78" y="540" type="curve" smooth="yes"/>
      <point x="-94" y="540"/>
      <point x="-108" y="549"/>
      <point x="-121" y="560" type="curve"/>
      <point x="-137" y="572"/>
      <point x="-155" y="585"/>
      <point x="-180" y="585" type="curve" smooth="yes"/>
      <point x="-216" y="585"/>
      <point x="-237" y="558"/>
      <point x="-252" y="505" type="curve"/>
      <point x="-249" y="501"/>
      <point x="-237" y="500"/>
      <point x="-232" y="500" type="curve"/>
      <point x="-221" y="530"/>
      <point x="-210" y="543"/>
      <point x="-188" y="543" type="curve" smooth="yes"/>
      <point x="-174" y="543"/>
      <point x="-159" y="533"/>
      <point x="-145" y="523" type="curve" smooth="yes"/>
      <point x="-128" y="511"/>
      <point x="-111" y="500"/>
      <point x="-92" y="500" type="curve" smooth="yes"/>
      <point x="-53" y="500"/>
      <point x="-27" y="527"/>
      <point x="-14" y="581" type="curve"/>
      <point x="-17" y="583"/>
      <point x="-27" y="587"/>
      <point x="-34" y="587" type="curve"/>
      <point x="-47" y="549"/>
      <point x="-60" y="540"/>
    </contour>
    <contour>
      <point x="-90" y="674" type="curve" smooth="yes"/>
      <point x="-90" y="648"/>
      <point x="-69" y="627"/>
      <point x="-43" y="627" type="curve" smooth="yes"/>
      <point x="-17" y="627"/>
      <point x="4" y="648"/>
      <point x="4" y="674" type="curve" smooth="yes"/>
      <point x="4" y="700"/>
      <point x="-17" y="721"/>
      <point x="-43" y="721" type="curve" smooth="yes"/>
      <point x="-69" y="721"/>
      <point x="-90" y="700"/>
    </contour>
    <contour>
      <point x="-251" y="674" type="curve" smooth="yes"/>
      <point x="-251" y="648"/>
      <point x="-230" y="627"/>
      <point x="-204" y="627" type="curve" smooth="yes"/>
      <point x="-178" y="627"/>
      <point x="-157" y="648"/>
      <point x="-157" y="674" type="curve" smooth="yes"/>
      <point x="-157" y="700"/>
      <point x="-178" y="721"/>
      <point x="-204" y="721" type="curve" smooth="yes"/>
      <point x="-230" y="721"/>
      <point x="-251" y="700"/>
    </contour>
  </outline>
</glyph>
<glyph name="uni03080301" format="2">
  <anchor x="-142" y="500" name="_top"/>
  <outline>
    <contour>
      <point x="-107" y="707" type="curve"/>
      <point x="-154" y="626" type="line"/>
      <point x="-158" y="618"/>
      <point x="-160" y="613"/>
      <point x="-160" y="609" type="curve" smooth="yes"/>
      <point x="-160" y="602"/>
      <point x="-156" y="596"/>
      <point x="-151" y="596" type="curve" smooth="yes"/>
      <point x="-147" y="596"/>
      <point x="-142" y="599"/>
      <point x="-132" y="609" type="curve" smooth="yes"/>
      <point x="-57" y="682" type="line"/>
      <point x="-58" y="690" type="line"/>
      <point x="-67" y="702"/>
      <point x="-85" y="709"/>
      <point x="-98" y="709" type="curve" smooth="yes"/>
      <point x="-101" y="709"/>
      <point x="-105" y="707"/>
    </contour>
    <contour>
      <point x="-112" y="547" type="curve" smooth="yes"/>
      <point x="-112" y="521"/>
      <point x="-91" y="500"/>
      <point x="-65" y="500" type="curve" smooth="yes"/>
      <point x="-39" y="500"/>
      <point x="-18" y="521"/>
      <point x="-18" y="547" type="curve" smooth="yes"/>
      <point x="-18" y="573"/>
      <point x="-39" y="594"/>
      <point x="-65" y="594" type="curve" smooth="yes"/>
      <point x="-91" y="594"/>
      <point x="-112" y="573"/>
    </contour>
    <contour>
      <point x="-273" y="547" type="curve" smooth="yes"/>
      <point x="-273" y="521"/>
      <point x="-252" y="500"/>
      <point x="-226" y="500" type="curve" smooth="yes"/>
      <point x="-200" y="500"/>
      <point x="-179" y="521"/>
      <point x="-179" y="547" type="curve" smooth="yes"/>
      <point x="-179" y="573"/>
      <point x="-200" y="594"/>
      <point x="-226" y="594" type="curve" smooth="yes"/>
      <point x="-252" y="594"/>
      <point x="-273" y="573"/>
    </contour>
  </outline>
  <guideline angle="0" x="0" y="500"/>
</glyph>
<glyph name="uni0308030C" format="2">
  <anchor x="-120" y="500" name="_top"/>
  <outline>
    <contour>
      <point x="-86" y="544" type="curve" smooth="yes"/>
      <point x="-86" y="518"/>
      <point x="-65" y="497"/>
      <point x="-39" y="497" type="curve" smooth="yes"/>
      <point x="-13" y="497"/>
      <point x="8" y="518"/>
      <point x="8" y="544" type="curve" smooth="yes"/>
      <point x="8" y="570"/>
      <point x="-13" y="591"/>
      <point x="-39" y="591" type="curve" smooth="yes"/>
      <point x="-65" y="591"/>
      <point x="-86" y="570"/>
    </contour>
    <contour>
      <point x="-247" y="544" type="curve" smooth="yes"/>
      <point x="-247" y="518"/>
      <point x="-226" y="497"/>
      <point x="-200" y="497" type="curve" smooth="yes"/>
      <point x="-174" y="497"/>
      <point x="-153" y="518"/>
      <point x="-153" y="544" type="curve" smooth="yes"/>
      <point x="-153" y="570"/>
      <point x="-174" y="591"/>
      <point x="-200" y="591" type="curve" smooth="yes"/>
      <point x="-226" y="591"/>
      <point x="-247" y="570"/>
    </contour>
    <contour>
      <point x="-96" y="600" type="line"/>
      <point x="-57" y="646"/>
      <point x="-10" y="691"/>
      <point x="33" y="730" type="curve"/>
      <point x="17" y="743" type="line"/>
      <point x="-26" y="716"/>
      <point x="-65" y="691"/>
      <point x="-110" y="653" type="curve"/>
      <point x="-136" y="689"/>
      <point x="-164" y="714"/>
      <point x="-197" y="743" type="curve"/>
      <point x="-220" y="730" type="line"/>
      <point x="-193" y="692"/>
      <point x="-165" y="647"/>
      <point x="-146" y="600" type="curve"/>
    </contour>
  </outline>
</glyph>
<glyph name="uni0313.gr" format="2">
  <anchor x="11" y="510" name="_top"/>
  <anchor x="38" y="696" name="_t.gr"/>
  <outline>
    <contour>
      <point x="-35.8744" y="683" type="curve" smooth="yes"/>
      <point x="-49.2512" y="675.356"/>
      <point x="-62.6968" y="660.64"/>
      <point x="-63.0534" y="644.277" type="curve" smooth="yes"/>
      <point x="-63.1196" y="641.24"/>
      <point x="-62.3134" y="638.36"/>
      <point x="-60.8745" y="636" type="curve" smooth="yes"/>
      <point x="14.1255" y="513" type="line" smooth="yes"/>
      <point x="15.3649" y="510.967"/>
      <point x="18.1255" y="510"/>
      <point x="22.1255" y="510" type="curve" smooth="yes"/>
      <point x="30.4628" y="510"/>
      <point x="35.707" y="515.744"/>
      <point x="38.1255" y="523" type="curve"/>
      <point x="38.1255" y="526" type="line"/>
      <point x="7.12546" y="672" type="line" smooth="yes"/>
      <point x="4.82696" y="682.825"/>
      <point x="-6.82346" y="688"/>
      <point x="-16.8745" y="688" type="curve" smooth="yes"/>
      <point x="-22.8745" y="688"/>
      <point x="-30.0502" y="686.328"/>
    </contour>
  </outline>
  <guideline angle="90" x="38" y="0"/>
</glyph>
